<?xml version="1.0" encoding="UTF-8"?>
<svg id="_Layer_" data-name="&amp;lt;Layer&amp;gt;" xmlns="http://www.w3.org/2000/svg" viewBox="0 0 50 50">
  <defs>
    <style>
      .cls-1 {
        fill: #009639;
      }

      .cls-2 {
        fill: #fff;
      }

      .cls-3 {
        fill: none;
        stroke: #fff;
        stroke-linecap: round;
        stroke-linejoin: round;
      }
    </style>
  </defs>
  <circle class="cls-1" cx="25" cy="25" r="20"/>
  <g>
    <path class="cls-3" d="M20.7,27.66c.05.08.11.14.19.19l3.85,2.22h0c.08.04.16.07.26.07s.18-.03.26-.07l3.85-2.22c.08-.04.14-.11.19-.19s.07-.17.07-.26v-4.45h0c0-.09-.02-.18-.07-.26-.05-.08-.11-.14-.19-.19l-3.85-2.22h0c-.08-.04-.16-.07-.26-.07s-.18.03-.26.07h0l-3.85,2.22c-.08.04-.14.11-.19.19s-.07.17-.07.26h0v4.45c0,.09.02.18.07.26"/>
    <rect class="cls-3" x="22.77" y="33.33" width="4.5" height="4.5" rx="2.25" ry="2.25"/>
    <rect class="cls-3" x="30.7" y="33.33" width="4.5" height="4.5" rx="2.25" ry="2.25"/>
    <line class="cls-3" x1="25.04" y1="33.32" x2="25" y2="30.14"/>
    <rect class="cls-3" x="14.84" y="33.33" width="4.5" height="4.5" rx="2.25" ry="2.25"/>
    <line class="cls-3" x1="22.35" y1="28.66" x2="18.06" y2="33.52"/>
    <line class="cls-3" x1="27.7" y1="28.66" x2="32.02" y2="33.52"/>
    <path class="cls-3" d="M19,27.88h-2.8c-1.96,0-3.55-1.57-3.55-3.51s1.58-3.5,3.53-3.51c0,0,0,0,0,0,0-2.88,2.36-5.21,5.27-5.21.77,0,1.51.17,2.17.46.88-2.31,3.13-3.96,5.77-3.96,3.41,0,6.17,2.73,6.17,6.1,0,.55-.07,1.08-.21,1.59,1.2.78,2,2.13,2,3.66,0,2.42-1.98,4.38-4.43,4.38h-1.92"/>
    <rect class="cls-2" x="22.77" y="33.33" width="4.5" height="4.5" rx="2.25" ry="2.25"/>
    <rect class="cls-2" x="30.7" y="33.33" width="4.5" height="4.5" rx="2.25" ry="2.25"/>
    <rect class="cls-2" x="14.84" y="33.33" width="4.5" height="4.5" rx="2.25" ry="2.25"/>
    <path class="cls-2" d="M20.7,27.66c.05.08.11.14.19.19l3.85,2.22h0c.08.04.16.07.26.07s.18-.03.26-.07l3.85-2.22c.08-.04.14-.11.19-.19s.07-.17.07-.26v-4.45h0c0-.09-.02-.18-.07-.26-.05-.08-.11-.14-.19-.19l-3.85-2.22h0c-.08-.04-.16-.07-.26-.07s-.18.03-.26.07h0l-3.85,2.22c-.08.04-.14.11-.19.19s-.07.17-.07.26h0v4.45c0,.09.02.18.07.26"/>
  </g>
</svg>