<?xml version="1.0" encoding="UTF-8"?>
<svg id="Layer_1" data-name="Layer 1" xmlns="http://www.w3.org/2000/svg" xmlns:xlink="http://www.w3.org/1999/xlink" viewBox="0 0 98.05 143.07">
  <defs>
    <style>
      .cls-1 {
        fill: #009639;
      }

      .cls-2 {
        fill: url(#linear-gradient-3);
      }

      .cls-3 {
        fill: url(#linear-gradient-2);
      }

      .cls-4 {
        stroke: #666;
      }

      .cls-4, .cls-5 {
        fill: none;
        stroke-linecap: round;
        stroke-linejoin: round;
      }

      .cls-6 {
        fill: url(#linear-gradient);
      }

      .cls-7 {
        fill: #0078d4;
      }

      .cls-8 {
        fill: #fff;
      }

      .cls-5 {
        stroke: #fff;
      }
    </style>
    <linearGradient id="linear-gradient" x1="-1036.8" y1="-24.06" x2="-1046.64" y2="4.99" gradientTransform="translate(1666.17 124.19) scale(1.56)" gradientUnits="userSpaceOnUse">
      <stop offset="0" stop-color="#114a8b"/>
      <stop offset="1" stop-color="#0669bc"/>
    </linearGradient>
    <linearGradient id="linear-gradient-2" x1="-1033.73" y1="-10.52" x2="-1036.01" y2="-9.75" gradientTransform="translate(1666.17 124.19) scale(1.56)" gradientUnits="userSpaceOnUse">
      <stop offset="0" stop-color="#000" stop-opacity=".3"/>
      <stop offset=".07" stop-color="#000" stop-opacity=".2"/>
      <stop offset=".32" stop-color="#000" stop-opacity=".1"/>
      <stop offset=".62" stop-color="#000" stop-opacity=".05"/>
      <stop offset="1" stop-color="#000" stop-opacity="0"/>
    </linearGradient>
    <linearGradient id="linear-gradient-3" x1="-1034.91" y1="-24.93" x2="-1024.12" y2="3.83" gradientTransform="translate(1666.17 124.19) scale(1.56)" gradientUnits="userSpaceOnUse">
      <stop offset="0" stop-color="#3ccbf4"/>
      <stop offset="1" stop-color="#2892df"/>
    </linearGradient>
  </defs>
  <g>
    <path class="cls-6" d="M40.77,83.11h14.8l-15.36,45.51c-.32.96-1.22,1.6-2.23,1.6h-11.51c-1.3,0-2.36-1.05-2.36-2.36,0-.26.04-.51.12-.75l14.31-42.4c.32-.96,1.22-1.61,2.24-1.61h0Z"/>
    <path class="cls-7" d="M62.27,113.63h-23.46c-.6,0-1.09.48-1.09,1.08,0,.3.12.59.35.8l15.08,14.07c.44.41,1.02.64,1.62.64h13.29l-5.77-16.59Z"/>
    <path class="cls-3" d="M40.77,83.11c-1.02,0-1.93.66-2.24,1.64l-14.29,42.33c-.44,1.22.2,2.57,1.42,3.01.26.09.53.14.8.14h11.81c.9-.16,1.64-.79,1.94-1.65l2.85-8.4,10.18,9.49c.43.35.96.55,1.51.55h13.24l-5.8-16.59h-16.92s10.36-30.52,10.36-30.52h-14.85Z"/>
    <path class="cls-2" d="M59.67,84.71c-.32-.96-1.22-1.6-2.23-1.6h-16.49c1.01,0,1.91.64,2.23,1.6l14.31,42.4c.42,1.23-.25,2.57-1.48,2.99-.24.08-.5.12-.75.12h16.49c1.3,0,2.36-1.06,2.36-2.36,0-.26-.04-.51-.12-.75l-14.31-42.4Z"/>
  </g>
  <g>
    <circle class="cls-1" cx="49.11" cy="36.82" r="25"/>
    <g>
      <path class="cls-5" d="M43.74,40.15c.06.1.14.18.24.23l4.81,2.78h0c.09.06.2.09.32.09s.23-.03.32-.09l4.81-2.78c.09-.05.18-.13.24-.23s.09-.21.08-.32v-5.56h0c0-.11-.03-.22-.08-.32-.06-.1-.14-.18-.24-.23l-4.81-2.78h0c-.09-.06-.2-.09-.32-.09s-.23.03-.32.09h0l-4.81,2.78c-.09.05-.18.13-.24.23s-.09.21-.08.32h0v5.56c0,.11.03.22.08.32"/>
      <rect class="cls-5" x="46.31" y="47.23" width="5.63" height="5.63" rx="2.81" ry="2.81"/>
      <rect class="cls-5" x="56.23" y="47.23" width="5.63" height="5.63" rx="2.81" ry="2.81"/>
      <line class="cls-5" x1="49.15" y1="47.21" x2="49.11" y2="43.25"/>
      <rect class="cls-5" x="36.4" y="47.23" width="5.63" height="5.63" rx="2.81" ry="2.81"/>
      <line class="cls-5" x1="45.79" y1="41.4" x2="40.43" y2="47.47"/>
      <line class="cls-5" x1="52.48" y1="41.4" x2="57.88" y2="47.47"/>
      <path class="cls-5" d="M41.61,40.42h-3.5c-2.45,0-4.43-1.96-4.43-4.38s1.97-4.37,4.41-4.38c0,0,0,0,0,0,0-3.6,2.95-6.52,6.59-6.52.97,0,1.89.21,2.72.58,1.1-2.89,3.91-4.94,7.22-4.94,4.26,0,7.71,3.41,7.71,7.62,0,.69-.09,1.35-.27,1.98,1.5.98,2.5,2.66,2.5,4.57,0,3.02-2.48,5.47-5.53,5.47h-2.4"/>
      <rect class="cls-8" x="46.31" y="47.23" width="5.63" height="5.63" rx="2.81" ry="2.81"/>
      <rect class="cls-8" x="56.23" y="47.23" width="5.63" height="5.63" rx="2.81" ry="2.81"/>
      <rect class="cls-8" x="36.4" y="47.23" width="5.63" height="5.63" rx="2.81" ry="2.81"/>
      <path class="cls-8" d="M43.74,40.15c.06.1.14.18.24.23l4.81,2.78h0c.09.06.2.09.32.09s.23-.03.32-.09l4.81-2.78c.09-.05.18-.13.24-.23s.09-.21.08-.32v-5.56h0c0-.11-.03-.22-.08-.32-.06-.1-.14-.18-.24-.23l-4.81-2.78h0c-.09-.06-.2-.09-.32-.09s-.23.03-.32.09h0l-4.81,2.78c-.09.05-.18.13-.24.23s-.09.21-.08.32h0v5.56c0,.11.03.22.08.32"/>
    </g>
  </g>
  <line class="cls-4" x1="7.58" y1="71.56" x2="90.63" y2="71.56"/>
</svg>