<?xml version="1.0" encoding="utf-8"?>
<!-- Generator: Adobe Illustrator 27.9.0, SVG Export Plug-In . SVG Version: 6.00 Build 0)  -->
<svg version="1.1" xmlns="http://www.w3.org/2000/svg" xmlns:xlink="http://www.w3.org/1999/xlink" x="0px" y="0px"
	 viewBox="0 0 64 74" style="enable-background:new 0 0 64 74;" xml:space="preserve">
<style type="text/css">
	.st0{fill:#009639;}
	.st1{fill:#FFFFFF;}
	.st2{fill:#999999;}
</style>
<g id="Art">
</g>
<g id="Layer_1">
	<g>
		<g>
			<g>
				<g>
					<g>
						<g>
							<path class="st0" d="M0.8225864,55.001091c0.3385484,0.5872231,0.8158319,1.045311,1.3664092,1.355938l27.9529324,16.1386375
								l0.0008717-0.0008698C30.6881409,72.8158875,31.322485,73,32.0004501,73
								c0.6779709,0,1.3131866-0.1841125,1.8576546-0.5052032l27.9538078-16.1386414
								c0.5505753-0.310627,1.0261116-0.7678413,1.3655319-1.3550644s0.4973526-1.2285461,0.4912453-1.861145V20.8626709
								L63.66782,20.8617992c0.0052299-0.6317234-0.1526985-1.2739182-0.4912491-1.8611431
								c-0.3394203-0.587225-0.8167-1.0444412-1.3664017-1.3559399L33.8563614,1.50608V1.5052079
								c-0.5444679-0.3211008-1.1788139-0.5052071-1.8567829-0.5052071c-0.6770935,0-1.3114376,0.1841062-1.8559074,0.5052071
								V1.50608L2.1907406,17.6447163c-0.5505772,0.3114986-1.0278606,0.7687149-1.3672817,1.3559399
								c-0.3385484,0.587225-0.4964795,1.2294197-0.4912442,1.8611431l-0.0008726,0.0008717V53.139946
								c-0.0061078,0.6325989,0.1518233,1.273922,0.4903717,1.861145"/>
						</g>
					</g>
				</g>
			</g>
			<g>
				<path class="st1" d="M8.8614321,39.8239861v-5.6480179c0-3.4668293,2.7321835-5.6709366,7.6225729-5.6709366
					c4.890337,0,7.6225204,2.2041073,7.6225204,5.6709366v5.6480179c0,3.4668846-2.7321835,5.67099-7.5995979,5.67099
					C11.6165915,45.494976,8.8614321,43.2908707,8.8614321,39.8239861z M20.5477886,39.5255623v-5.0511169
					c0-1.6760292-1.2627792-2.755106-4.0408611-2.755106c-2.8010578,0-4.0867596,1.0790768-4.0867596,2.755106v5.0511169
					c0,1.6760292,1.2627792,2.7551041,4.0638371,2.7551041C19.2850094,42.2806664,20.5477886,41.2015915,20.5477886,39.5255623z"/>
				<path class="st1" d="M40.1369743,28.8494072v16.3011932h-3.4668884l-6.6352386-10.0332489v10.0332489h-3.4668846V28.8494072
					h3.4668846l6.6352386,10.0792046V28.8494072H40.1369743z"/>
				<path class="st1" d="M46.5518341,32.0637169v3.5587349h7.6684723v3.2143059h-7.6684723v3.0995369h8.5867691v3.2143059
					H42.9931488V28.8494072h12.1454544v3.2143097H46.5518341z"/>
			</g>
		</g>
		<path class="st2" d="M60.2947807,66.3141022h0.4593391v-1.0230865h0.3633499c0.2402039,0,0.4125099,0.023407,0.5103722,0.0852127
			c0.1606026,0.0941162,0.2425461,0.295929,0.2425461,0.5951309v0.2097626l0.0102959,0.0781937
			c0.0056229,0.0173264,0.0056229,0.024353,0.0070305,0.0327835c0.0023346,0.0126419,0.003273,0.0163879,0.0102959,0.0220032
			h0.4256287l-0.0154533-0.0290298c-0.0126457-0.0196686-0.0196724-0.0641479-0.020607-0.1329803
			c-0.0060883-0.0735092-0.0060883-0.1362534-0.0060883-0.194313v-0.1938477c0-0.1301727-0.0486908-0.2631454-0.1423416-0.4054947
			c-0.0964546-0.1371918-0.2481613-0.2186584-0.4532509-0.254715c0.162014-0.0271606,0.2893753-0.0702362,0.3778687-0.1226807
			c0.1737137-0.1095657,0.2537842-0.2874908,0.2537842-0.5150528c0-0.3272934-0.1292343-0.5511093-0.4017448-0.660675
			c-0.1503029-0.0618095-0.3858261-0.0931816-0.7121849-0.0931816h-0.9088402V66.3141022z M61.6011467,64.9112778
			c-0.0922356,0.0398026-0.2387962,0.0580597-0.4368591,0.0580597h-0.4101677v-0.9472351h0.3914413
			c0.2537804,0,0.4377975,0.0360565,0.5520477,0.1016083c0.1165848,0.0650864,0.1727791,0.19104,0.1727791,0.3797379
			C61.870388,64.7047882,61.7828217,64.8368301,61.6011467,64.9112778 M62.9351501,63.3473816
			c-0.4672966-0.4612122-1.0263672-0.6897087-1.6870499-0.6897087c-0.6466255,0-1.2108459,0.2284966-1.6673698,0.6897087
			c-0.4672966,0.4626122-0.6934547,1.0221481-0.6934547,1.6790771c0,0.6559982,0.2238159,1.2178802,0.6850281,1.6781464
			c0.4579239,0.4673004,1.0230827,0.6990738,1.6757965,0.6990738c0.6606827,0,1.2197533-0.2317734,1.6870499-0.6990738
			c0.4579315-0.4626083,0.6943817-1.0268326,0.6943817-1.6781464
			C63.6295319,64.3648529,63.3930817,63.8099937,62.9351501,63.3473816 M62.6940117,63.582901
			c0.3998642,0.3905067,0.5955849,0.8774643,0.5955849,1.4435577c0,0.5604782-0.1957207,1.0511856-0.5955849,1.450592
			c-0.3937874,0.3975296-0.8774719,0.6016769-1.4459114,0.6016769c-0.5642204,0-1.0450897-0.2041473-1.4440231-0.6016769
			c-0.3914452-0.3994064-0.5927849-0.8901138-0.5927849-1.450592c0-0.5660934,0.2013397-1.053051,0.5927849-1.4435577
			c0.4045486-0.4064255,0.8835526-0.6058922,1.4440231-0.6058922C61.8141937,62.9770088,62.2955399,63.1764755,62.6940117,63.582901
			"/>
	</g>
</g>
</svg>
