<?xml version="1.0" encoding="utf-8"?>
<!-- Generator: Adobe Illustrator 27.9.0, SVG Export Plug-In . SVG Version: 6.00 Build 0)  -->
<svg version="1.1" id="Layer_1" xmlns="http://www.w3.org/2000/svg" xmlns:xlink="http://www.w3.org/1999/xlink" x="0px" y="0px"
	 viewBox="0 0 64 74" style="enable-background:new 0 0 64 74;" xml:space="preserve">
<style type="text/css">
	.st0{fill:#009639;}
	.st1{fill:#FFFFFF;}
</style>
<g>
	<path class="st0" d="M0.8225663,55.001091c0.3385485,0.5872269,0.815832,1.045311,1.3664095,1.3559418l27.9529343,16.1386337
		l0.0008717-0.0008698C30.6881256,72.8158951,31.3224678,73,32.0004349,73c0.6779709,0,1.3131828-0.1841049,1.8576546-0.5052032
		l27.9538078-16.1386375c0.5505753-0.310627,1.0261116-0.7678413,1.3655319-1.3550682
		c0.3394241-0.5872231,0.4973526-1.2285461,0.4912491-1.8611412V20.862669l-0.0008736-0.0008717
		c0.0052338-0.6317234-0.1526985-1.2739182-0.4912453-1.8611431c-0.3394203-0.587225-0.8167038-1.0444412-1.3664055-1.3559399
		L33.8563461,1.5060759v-0.000872c-0.5444717-0.321101-1.1788139-0.5052072-1.8567829-0.5052072
		c-0.6770954,0-1.3114376,0.1841062-1.8559093,0.5052072v0.000872L2.1907208,17.6447144
		c-0.5505774,0.3114986-1.027861,0.7687149-1.3672819,1.3559399c-0.3385485,0.587225-0.4964796,1.2294197-0.4912443,1.8611431
		L0.331322,20.862669v32.2772827c-0.0061078,0.6325951,0.1518233,1.2739182,0.4903717,1.8611412"/>
	<g>
		<path class="st1" d="M25.0177364,46.586544c0,1.5486336-1.2552433,2.8045578-2.8045559,2.8045578
			c-1.5486336,0-2.8045559-1.2559242-2.8045559-2.8045578l0.0006809,0.0006828l0.0027218-19.2520542
			c0-1.4914513,1.3178692-2.7249126,3.1843967-2.7249126c1.3362484,0,2.8787556,0.5391293,3.8229103,1.70928l0.8474941,1.0142708
			l11.7165089,14.0214176V27.413456h-0.001358c0-1.5486336,1.2559204-2.8045559,2.8052368-2.8045559
			c1.5486336,0,2.803875,1.2559223,2.803875,2.8045559h-0.0006828l-0.0027199,19.2506905
			c0,1.4914513-1.3185501,2.7249107-3.1843987,2.7249107c-1.3369293,0-2.8787537-0.5384483-3.8229103-1.7092819
			L25.0163746,32.6440887v13.9431381L25.0177364,46.586544z"/>
		<g>
			<path class="st1" d="M55.706459,34.5565605V37h-8.1153793v-2.4434395h2.7052536v-7.5046062h-2.7052536v-2.4430542h5.410511
				v9.9476604H55.706459z"/>
		</g>
	</g>
</g>
<g>
</g>
<g>
</g>
<g>
</g>
<g>
</g>
<g>
</g>
<g>
</g>
</svg>
