<?xml version="1.0" encoding="UTF-8"?>
<svg xmlns="http://www.w3.org/2000/svg" version="1.1" viewBox="0 0 50 50">
  <defs>
    <style>
      .cls-1 {
        fill: #009639;
      }

      .cls-2 {
        fill: none;
        stroke: #fff;
        stroke-miterlimit: 10;
      }

      .cls-3 {
        fill: #fff;
      }
    </style>
  </defs>
  <!-- Generator: Adobe Illustrator 28.7.1, SVG Export Plug-In . SVG Version: 1.2.0 Build 142)  -->
  <g>
    <g id="Layer_1">
      <circle class="cls-1" cx="25" cy="25" r="20"/>
      <path class="cls-3" d="M19.5,30.5h-4.2c-.3,0-.5.2-.5.4,0,0,0,0,0,0v5.7c0,.3.2.5.5.5h4.2c.3,0,.5-.2.5-.4,0,0,0,0,0,0v-5.6c0-.3-.2-.5-.5-.5h0ZM26.8,23.5h-3.7c-.4,0-.7.3-.7.8v12c0,.4.3.7.7.8h3.7c.4,0,.7-.3.7-.8v-12c0-.5-.1-.8-.7-.8M34.6,27.8h-3.9c-.3,0-.6.3-.5.7v8c0,.3.2.6.5.7h3.9c.3,0,.6-.3.6-.7v-8c0-.4-.2-.7-.6-.7"/>
      <circle class="cls-3" cx="17.3" cy="23.4" r="2.8"/>
      <circle class="cls-3" cx="25" cy="15.6" r="2.8"/>
      <circle class="cls-3" cx="32.7" cy="20.8" r="2.8"/>
      <path class="cls-2" d="M16.4,24.3l6.9-7.1M27.2,16.3l6.3,4.5"/>
    </g>
  </g>
</svg>