<?xml version="1.0" encoding="UTF-8"?>
<svg xmlns="http://www.w3.org/2000/svg" version="1.1" viewBox="0 0 50 50">
  <defs>
    <style>
      .cls-1 {
        fill: #009639;
      }

      .cls-2 {
        fill: none;
        stroke: #fff;
        stroke-miterlimit: 10;
      }

      .cls-3 {
        fill: #fff;
      }
    </style>
  </defs>
  <!-- Generator: Adobe Illustrator 28.7.1, SVG Export Plug-In . SVG Version: 1.2.0 Build 142)  -->
  <g>
    <g id="Layer_1">
      <circle class="cls-1" cx="25" cy="25" r="20"/>
      <path class="cls-3" d="M18.9,28.5c0,.1.2.2.3.3l5.5,3.2c.1,0,.2,0,.4,0s.3,0,.4-.1l5.5-3.2c.1,0,.2-.2.3-.3,0-.1,0-.2,0-.4v-6.4c0-.1,0-.2,0-.4,0-.1-.2-.2-.3-.3l-5.5-3.2c-.1,0-.2-.1-.4-.1s-.3,0-.4.1-5.5,3.2-5.5,3.2c-.1,0-.2.2-.3.3,0,.1-.1.2,0,.4v6.4c0,.1,0,.2,0,.4"/>
      <circle class="cls-3" cx="36.3" cy="18.5" r="2.2"/>
      <path class="cls-2" d="M25,25v-12.6"/>
      <circle class="cls-3" cx="13.7" cy="18.5" r="2.2"/>
      <circle class="cls-3" cx="25" cy="12.4" r="2.7"/>
      <circle class="cls-3" cx="36.3" cy="31.5" r="2.2"/>
      <path class="cls-2" d="M25,25v12.6"/>
      <circle class="cls-3" cx="13.7" cy="31.5" r="2.2"/>
      <path class="cls-2" d="M25,25l11.3,6.5M25,25l-11.3,6.5M25,25l11.3-6.5M25,25l-11.3-6.5"/>
      <circle class="cls-3" cx="25" cy="37.6" r="2.7"/>
    </g>
  </g>
</svg>