<?xml version="1.0" encoding="UTF-8"?>
<svg xmlns="http://www.w3.org/2000/svg" version="1.1" viewBox="0 0 50 55.5">
  <defs>
    <style>
      .cls-1 {
        fill: #009639;
      }

      .cls-2 {
        fill: #fff;
      }
    </style>
  </defs>
  <!-- Generator: Adobe Illustrator 28.7.1, SVG Export Plug-In . SVG Version: 1.2.0 Build 142)  -->
  <g>
    <g id="Layer_1">
      <path class="cls-1" d="M5.3,39.1c.2.4.5.7.9.9l17.6,10.2c.7.4,1.6.4,2.3,0l17.6-10.2c.7-.4,1.2-1.2,1.2-2v-20.4c0-.8-.4-1.6-1.2-2L26.2,5.3c-.7-.4-1.6-.4-2.3,0S6.2,15.5,6.2,15.5c-.7.4-1.2,1.2-1.2,2v20.4c0,.4.1.8.3,1.2"/>
      <path class="cls-2" d="M19.3,35.5c0,1.2-1,2.3-2.3,2.3s-2.3-1-2.3-2.3v-15.6c0-1.2,1.1-2.2,2.6-2.2,1.2,0,2.3.5,3.1,1.4l.7.8,9.5,11.4v-11.3c0-1.2,1-2.3,2.3-2.3s2.3,1,2.3,2.3v15.6c0,1.2-1.1,2.2-2.6,2.2-1.2,0-2.3-.5-3.1-1.4l-10.2-12.2v11.3Z"/>
    </g>
  </g>
</svg>