<?xml version="1.0" encoding="UTF-8"?>
<svg xmlns="http://www.w3.org/2000/svg" xmlns:xlink="http://www.w3.org/1999/xlink" version="1.1" viewBox="0 0 339.8 129.9">
  <defs>
    <style>
      .cls-1 {
        fill: #009639;
      }

      .cls-2 {
        fill: url(#linear-gradient-3);
      }

      .cls-3 {
        fill: url(#linear-gradient-2);
      }

      .cls-4 {
        fill: url(#linear-gradient);
      }

      .cls-5 {
        fill: #0078d4;
      }

      .cls-6 {
        fill: none;
        stroke: #000;
        stroke-linecap: round;
        stroke-miterlimit: 10;
      }

      .cls-7 {
        fill: #fff;
      }
    </style>
    <linearGradient id="linear-gradient" x1="-1184.5" y1="-552.6" x2="-1206.6" y2="-617.9" gradientTransform="translate(2121 -844.8) scale(1.6 -1.6)" gradientUnits="userSpaceOnUse">
      <stop offset="0" stop-color="#114a8b"/>
      <stop offset="1" stop-color="#0669bc"/>
    </linearGradient>
    <linearGradient id="linear-gradient-2" x1="-1176.4" y1="-584.2" x2="-1181.5" y2="-585.9" gradientTransform="translate(2121 -844.8) scale(1.6 -1.6)" gradientUnits="userSpaceOnUse">
      <stop offset="0" stop-color="#000" stop-opacity=".3"/>
      <stop offset="0" stop-color="#000" stop-opacity=".2"/>
      <stop offset=".3" stop-color="#000" stop-opacity=".1"/>
      <stop offset=".6" stop-color="#000" stop-opacity="0"/>
      <stop offset="1" stop-color="#000" stop-opacity="0"/>
    </linearGradient>
    <linearGradient id="linear-gradient-3" x1="-1181" y1="-551.6" x2="-1156.8" y2="-616.2" gradientTransform="translate(2121 -844.8) scale(1.6 -1.6)" gradientUnits="userSpaceOnUse">
      <stop offset="0" stop-color="#3ccbf4"/>
      <stop offset="1" stop-color="#2892df"/>
    </linearGradient>
  </defs>
  <!-- Generator: Adobe Illustrator 28.7.1, SVG Export Plug-In . SVG Version: 1.2.0 Build 142)  -->
  <g>
    <g id="Layer_1">
      <path class="cls-4" d="M260.2,12h33.3l-34.5,102.3c-.7,2.1-2.7,3.6-5,3.6h-25.9c-2.9,0-5.3-2.4-5.3-5.3s0,0,0,0c0-.6,0-1.1.3-1.7L255.2,15.6c.7-2.1,2.7-3.6,5-3.6h0Z"/>
      <path class="cls-5" d="M308.5,80.6h-52.7c-1.3,0-2.4,1.1-2.5,2.4,0,.7.3,1.4.8,1.8l33.9,31.6c1,.9,2.3,1.4,3.6,1.4h29.9l-13-37.3Z"/>
      <path class="cls-3" d="M260.2,12c-2.3,0-4.3,1.5-5,3.7l-32.1,95.2c-1,2.7.4,5.8,3.2,6.8,0,0,0,0,0,0,.6.2,1.2.3,1.8.3h26.6c2-.4,3.7-1.8,4.3-3.7l6.4-18.9,22.9,21.3c1,.8,2.2,1.2,3.4,1.2h29.8l-13.1-37.3h-38l23.2-68.6h-33.4Z"/>
      <path class="cls-2" d="M302.7,15.6c-.7-2.1-2.7-3.6-5-3.6h-37.1c2.3,0,4.3,1.5,5,3.6l32.2,95.3c.9,2.8-.6,5.8-3.3,6.7-.5.2-1.1.3-1.7.3h37.1c2.9,0,5.3-2.4,5.3-5.3h0c0-.6,0-1.2-.3-1.7l-32.2-95.3Z"/>
      <line class="cls-6" x1="170.9" y1="2.9" x2="170.9" y2="127"/>
      <circle class="cls-1" cx="61" cy="65" r="55"/>
      <path class="cls-7" d="M82.9,86.5c-.7,0-1.4.1-2.1.3l-10.2-11.5,2.3-1.4c.4-.2.8-.5,1.1-1,.3-.4.4-.9.4-1.4v-12.2c0-.5-.1-1-.4-1.4-.2-.4-.6-.7-1-1l-10.7-6.1c-.6-.3-1.9-.4-2.7,0l-10.5,6.1c-.4.2-.8.5-1.1,1-.3.4-.4.9-.4,1.4v12.2c0,.5.1,1,.4,1.4.2.4.6.7,1,1l2.5,1.4-10.1,11.4c-.7-.2-1.4-.4-2.2-.4-4.2,0-7.6,3.4-7.6,7.6s3.4,7.6,7.6,7.6,7.6-3.4,7.6-7.6-1.1-4.5-2.9-5.9l10-11.3,5.7,3.3v6.5c-3.5.6-6.1,3.7-6.1,7.4s3.4,7.6,7.6,7.6,7.6-3.4,7.6-7.6-2.7-6.8-6.1-7.4v-6.5c0,0,0,0,0,0l5.7-3.3,10.1,11.3c-1.8,1.4-2.9,3.5-2.9,5.9,0,4.2,3.4,7.6,7.6,7.6s7.6-3.4,7.6-7.6-3.4-7.6-7.6-7.6Z"/>
      <path class="cls-7" d="M91,50.2c.3-1.2.4-2.5.4-3.8,0-10-8.2-18.2-18.3-18.2s-13.6,4.2-16.6,10.5c-1.7-.6-3.5-.9-5.2-.9-8.3,0-15.1,6.4-15.8,14.4-5.5.7-9.8,5.3-9.8,10.9s5,11,11.1,11h7.7c.8,0,1.4-.6,1.4-1.4s-.6-1.4-1.4-1.4h-7.7c-4.6,0-8.4-3.7-8.4-8.3s3.7-8.3,8.3-8.3c.8,0,1.4-.6,1.4-1.4,0-7.1,5.9-13,13.1-13s3.7.4,5.4,1.1c.3.2.7.2,1.1,0,.3-.1.6-.4.8-.8,2.3-6,8.1-10,14.6-10s15.6,6.9,15.6,15.4-.2,2.7-.5,4c-.2.6,0,1.2.6,1.5,3.1,2,4.9,5.3,4.9,8.9,0,5.9-4.8,10.7-10.8,10.7h-5.3c-.8,0-1.4.6-1.4,1.4s.6,1.4,1.4,1.4h5.3c7.5,0,13.6-6,13.6-13.4s-2-8.1-5.3-10.7Z"/>
    </g>
  </g>
</svg>