<svg xmlns="http://www.w3.org/2000/svg" viewBox="0 0 50 50"><circle cx="25" cy="25" r="20" fill="#009639"/><path fill="#fff" d="M17.35 22.11v5.92h-1.26l-2.41-3.64v3.64h-1.26v-5.92h1.26l2.41 3.66v-3.66zm5.03 2.13v-.09c0-.61-.54-1-1.42-1s-1.44.39-1.44 1v1.83c0 .61.54 1 1.43 1s1.43-.39 1.43-1h-1.46v-1.17h2.75v1.28c0 1.26-.99 2.06-2.72 2.06s-2.73-.8-2.73-2.06v-2.05c0-1.26.99-2.06 2.72-2.06s2.72.8 2.72 2.06v.2h-1.29Zm2.16-2.13h1.29v5.92h-1.29zm7.17 0v5.92h-1.26l-2.41-3.64v3.64h-1.26v-5.92h1.26l2.41 3.66v-3.66zm4.16 3 1.97 2.92H36.3l-1.24-1.84-1.29 1.84h-1.46l1.97-2.99-1.97-2.92h1.54l1.27 1.87 1.34-1.87h1.48l-2.07 3Z"/></svg>