<?xml version="1.0" encoding="UTF-8"?>
<svg xmlns="http://www.w3.org/2000/svg" version="1.1" viewBox="0 0 50 50">
  <defs>
    <style>
      .cls-1 {
        fill: #009639;
      }

      .cls-2 {
        fill: none;
        stroke: #009639;
        stroke-linecap: round;
        stroke-linejoin: round;
      }

      .cls-3 {
        fill: #fff;
      }
    </style>
  </defs>
  <!-- Generator: Adobe Illustrator 28.7.1, SVG Export Plug-In . SVG Version: 1.2.0 Build 142)  -->
  <g>
    <g id="Layer_1">
      <circle class="cls-1" cx="25" cy="25" r="20"/>
      <path class="cls-3" d="M35.3,18.7c0-1.2-.2-1.9-.7-2.4-.1-.1-.3-.2-.5-.2s-8.7-3.1-8.7-3.1c-.1,0-.3,0-.4,0l-9.2,3.1h0c-.2,0-.4.1-.5.2-.5.5-.7,1.2-.7,2.4,0,3.2.4,8.4.4,8.4,0,.2-.2,4.1,4.4,7.5,3.8,2.8,5.3,3.8,5.3,3.9.1,0,.2,0,.3,0,0,0,1.5-1.1,5.4-3.9,4.6-3.3,4.4-7.3,4.4-7.4,0,0,.4-5.2.4-8.4h0Z"/>
      <path class="cls-2" d="M30.4,20.1h0l-6.6,10-3.6-4.7"/>
    </g>
  </g>
</svg>